<?xml version="1.0" standalone="no"?>
<!DOCTYPE svg PUBLIC "-//W3C//DTD SVG 20010904//EN"
 "http://www.w3.org/TR/2001/REC-SVG-20010904/DTD/svg10.dtd">
<svg version="1.0" xmlns="http://www.w3.org/2000/svg"
 width="512.000000pt" height="512.000000pt" viewBox="0 0 512.000000 512.000000"
 preserveAspectRatio="xMidYMid meet">
<metadata>
Created by potrace 1.11, written by Peter Selinger 2001-2013
</metadata>
<g transform="translate(0.000000,512.000000) scale(0.100000,-0.100000)"
fill="#000000" stroke="none">
<path d="M4203 4786 l-28 -24 -5 -1949 -5 -1948 -266 -22 c-223 -18 -273 -24
-307 -42 -65 -33 -69 -84 -12 -153 69 -83 319 -251 543 -363 128 -65 161 -69
209 -26 l33 29 3 2204 c1 1212 0 2218 -3 2237 -14 75 -103 107 -162 57z"/>
<path d="M1285 4736 c-171 -34 -283 -94 -410 -221 -146 -146 -231 -318 -271
-545 -22 -130 -15 -403 16 -544 59 -277 195 -557 289 -596 39 -16 53 -6 88 64
69 136 284 455 444 658 99 125 279 305 411 411 192 154 443 307 502 307 83 1
88 39 14 114 -138 137 -423 281 -668 337 -112 26 -321 33 -415 15z"/>
<path d="M3012 2610 c-234 -61 -531 -241 -734 -444 -171 -171 -272 -337 -313
-516 -20 -87 -20 -324 0 -408 53 -226 219 -353 466 -355 102 -1 108 2 151 86
57 113 283 323 618 575 168 126 255 202 275 242 7 14 23 66 36 115 26 105 31
273 10 370 -32 147 -126 282 -232 333 -58 28 -173 29 -277 2z"/>
</g>
</svg>
