<svg height="496pt" viewBox="0 0 496 496" width="496pt" xmlns="http://www.w3.org/2000/svg"><path d="m448 288h-26.105469c-4.789062-18.519531-17.65625-33.777344-34.628906-41.816406 2.933594-3.984375 4.734375-8.863282 4.734375-14.183594 0-9.183594-5.238281-17.078125-12.832031-21.113281 5.136719-8.527344 13.390625-14.773438 23.3125-17.261719l7.457031-1.863281-3.882812-15.515625-7.453126 1.867187c-16.105468 4.015625-29.167968 15.023438-35.976562 29.886719h-5.25c-6.808594-14.863281-19.871094-25.871094-35.976562-29.886719l-7.453126-1.867187-3.882812 15.515625 7.457031 1.863281c9.921875 2.480469 18.175781 8.734375 23.3125 17.261719-7.59375 4.035156-12.832031 11.929687-12.832031 21.113281 0 5.320312 1.800781 10.199219 4.742188 14.183594-16.972657 8.039062-29.839844 23.296875-34.628907 41.816406h-26.113281v-24h-16v40h40v16h-40v16h40v16h-40v40h16v-24h26.105469c7.132812 27.558594 32.132812 48 61.894531 48s54.761719-20.441406 61.894531-48h26.105469v24h16v-40h-40v-16h40v-16h-40v-16h40v-40h-16zm-88-2.238281-26.878906-21.503907c7.679687-5.210937 16.925781-8.257812 26.878906-8.257812s19.199219 3.046875 26.878906 8.246094zm-8-45.761719c-4.40625 0-8-3.585938-8-8s3.59375-8 8-8h16c4.40625 0 8 3.585938 8 8s-3.59375 8-8 8zm56 112c0 23.734375-17.335938 43.449219-40 47.28125v-31.28125h-16v31.28125c-22.664062-3.824219-40-23.539062-40-47.28125v-48c0-10.703125 3.558594-20.558594 9.503906-28.550781l30.496094 24.390625v52.160156h16v-52.160156l30.496094-24.390625c5.945312 7.992187 9.503906 17.847656 9.503906 28.550781zm0 0"/><path d="m472 0h-424c-13.230469 0-24 10.769531-24 24v312h37.808594c-9.480469 8.34375-16.449219 19.414062-19.703125 32h-26.105469v-24h-16v40h40v16h-40v16h40v16h-40v40h16v-24h26.105469c7.132812 27.558594 32.132812 48 61.894531 48s54.761719-20.441406 61.894531-48h26.105469v24h16v-40h-40v-16h40v-16h-40v-16h40v-40h-16v24h-26.105469c-3.253906-12.585938-10.222656-23.65625-19.703125-32h85.808594v-16h-97.472656c.898437-2.511719 1.472656-5.183594 1.472656-8 0-9.183594-5.238281-17.078125-12.832031-21.113281 5.136719-8.527344 13.390625-14.773438 23.3125-17.261719l7.457031-1.863281-3.882812-15.515625-7.453126 1.867187c-16.105468 4.015625-29.167968 15.023438-35.976562 29.886719h-5.25c-6.808594-14.863281-19.871094-25.871094-35.976562-29.886719l-7.453126-1.875-3.890624 15.523438 7.457031 1.863281c9.921875 2.480469 18.175781 8.734375 23.3125 17.261719-7.585938 4.035156-12.824219 11.929687-12.824219 21.113281 0 2.816406.574219 5.488281 1.472656 8h-33.472656v-240h440v248h16v-304c0-13.230469-10.769531-24-24-24zm-376 320c-4.40625 0-8-3.585938-8-8s3.59375-8 8-8h16c4.40625 0 8 3.585938 8 8s-3.59375 8-8 8zm8 45.761719-26.878906-21.503907c7.679687-5.210937 16.925781-8.257812 26.878906-8.257812s19.199219 3.046875 26.878906 8.246094zm48 18.238281v48c0 23.734375-17.335938 43.449219-40 47.28125v-31.28125h-16v31.28125c-22.664062-3.824219-40-23.539062-40-47.28125v-48c0-10.703125 3.558594-20.558594 9.503906-28.550781l30.496094 24.390625v52.160156h16v-52.160156l30.496094-24.390625c5.945312 7.992187 9.503906 17.847656 9.503906 28.550781zm-112-320v-40c0-4.414062 3.59375-8 8-8h424c4.40625 0 8 3.585938 8 8v40zm0 0"/><path d="m56 32h16v16h-16zm0 0"/><path d="m88 32h16v16h-16zm0 0"/><path d="m120 32h16v16h-16zm0 0"/><path d="m448 96h16v16h-16zm0 0"/><path d="m416 96h16v16h-16zm0 0"/><path d="m448 128h16v16h-16zm0 0"/><path d="m448 160h16v16h-16zm0 0"/><path d="m416 128h16v16h-16zm0 0"/><path d="m384 96h16v16h-16zm0 0"/><path d="m132.945312 96h-76.945312v144h176v-112h-83.054688zm-60.945312 16h51.054688l8 16h-59.054688zm144 112h-144v-80h144zm0 0"/><path d="m88 160h16v16h-16zm0 0"/><path d="m120 160h80v16h-80zm0 0"/><path d="m88 192h112v16h-112zm0 0"/></svg>