<svg height="496pt" viewBox="0 0 496 496" width="496pt" xmlns="http://www.w3.org/2000/svg"><path d="m410.519531 328h61.480469c13.230469 0 24-10.769531 24-24v-51.863281c0-15.5625-11.121094-28.816407-26.441406-31.511719l-106.238282-18.746094c-4.871093-.855468-9.304687-3.167968-12.800781-6.664062l-39.496093-39.496094c-7.550782-7.558594-17.589844-11.71875-28.28125-11.71875h-170.742188c-7.015625 0-13.664062 3.054688-18.222656 8.375l-35.371094 41.265625-12.820312-25.640625h-45.585938v16h35.695312l8 16h-11.695312c-17.648438 0-32 14.351562-32 32v64c0 17.648438 14.351562 32 32 32h53.480469c2.855469 5.992188 6.710937 11.40625 11.398437 16h-96.878906v16h496v-16h-96.886719c4.695313-4.59375 8.550781-10.007812 11.40625-16zm61.480469-16h-56.640625c.375-2.625.640625-5.28125.640625-8s-.265625-5.375-.640625-8h64.640625v8c0 4.414062-3.59375 8-8 8zm7.398438-64h-18.285157c-5.042969 0-9.570312-2.800781-11.824219-7.304688l-4.058593-8.121093 21.546875 3.800781c6.253906 1.105469 11.046875 5.738281 12.621094 11.625zm-447.398438-32h28.320312l45.609376-53.207031c1.519531-1.777344 3.734374-2.792969 6.070312-2.792969h170.742188c6.320312 0 12.496093 2.558594 16.96875 7.023438l39.496093 39.496093c5.832031 5.832031 13.207031 9.671875 21.335938 11.113281l65.074219 11.480469 9.367187 18.734375c4.976563 9.96875 14.992187 16.152344 26.128906 16.152344h18.886719v16h-69.480469c-9.007812-18.886719-28.238281-32-50.519531-32s-41.511719 13.113281-50.519531 32h-53.480469v-8c0-12.664062-6.742188-24.574219-17.601562-31.089844l-12.566407-7.535156c-3.65625-2.191406-6.335937-5.550781-8-9.367188h105.480469l-48-48h-142.625l-48 48h116.28125c2.183594 9.519532 8.109375 17.976563 16.632812 23.089844l12.566407 7.535156c6.0625 3.632813 9.832031 10.289063 9.832031 17.367188v8h-53.480469c-9.007812-18.886719-28.238281-32-50.519531-32s-41.511719 13.113281-50.519531 32h-69.480469v-48c0-8.824219 7.175781-16 16-16zm272.640625 96h-113.28125c.375-2.625.640625-5.28125.640625-8s-.265625-5.375-.640625-8h113.28125c-.375 2.625-.640625 5.28125-.640625 8s.265625 5.375.640625 8zm-181.328125-104 16-16h129.375l16 16zm-91.3125 104c-8.824219 0-16-7.175781-16-16h64.640625c-.375 2.625-.640625 5.28125-.640625 8s.265625 5.375.640625 8zm64-8c0-22.054688 17.945312-40 40-40s40 17.945312 40 40-17.945312 40-40 40-40-17.945312-40-40zm79.113281 40c4.695313-4.59375 8.542969-10.007812 11.398438-16h122.960937c2.855469 5.992188 6.710938 11.40625 11.398438 16zm144.886719-40c0-22.054688 17.945312-40 40-40s40 17.945312 40 40-17.945312 40-40 40-40-17.945312-40-40zm0 0"/><path d="m360 280c-13.230469 0-24 10.769531-24 24s10.769531 24 24 24 24-10.769531 24-24-10.769531-24-24-24zm0 32c-4.40625 0-8-3.585938-8-8s3.59375-8 8-8 8 3.585938 8 8-3.59375 8-8 8zm0 0"/><path d="m136 280c-13.230469 0-24 10.769531-24 24s10.769531 24 24 24 24-10.769531 24-24-10.769531-24-24-24zm0 32c-4.40625 0-8-3.585938-8-8s3.59375-8 8-8 8 3.585938 8 8-3.59375 8-8 8zm0 0"/><path d="m0 64h16v16h-16zm0 0"/><path d="m32 64h128v16h-128zm0 0"/><path d="m32 32h16v16h-16zm0 0"/><path d="m64 32h128v16h-128zm0 0"/><path d="m64 0h16v16h-16zm0 0"/><path d="m96 0h128v16h-128zm0 0"/><path d="m480 416h16v16h-16zm0 0"/><path d="m336 416h128v16h-128zm0 0"/><path d="m448 448h16v16h-16zm0 0"/><path d="m304 448h128v16h-128zm0 0"/><path d="m416 480h16v16h-16zm0 0"/><path d="m272 480h128v16h-128zm0 0"/></svg>