<svg height="496pt" viewBox="0 0 496 496" width="496pt" xmlns="http://www.w3.org/2000/svg"><path d="m456 128h-168v-72c0-10.414062-6.710938-19.214844-16-22.527344v-33.472656h-48v33.472656c-9.289062 3.3125-16 12.113282-16 22.527344v72h-80v-48h-16v-32h-16v-48h-16v48h-16v32h-16v48h-8c-22.054688 0-40 17.945312-40 40v288c0 22.054688 17.945312 40 40 40h416c22.054688 0 40-17.945312 40-40v-288c0-22.054688-17.945312-40-40-40zm0 16c13.230469 0 24 10.769531 24 24v56h-192v-80zm-440 304v-208h192v112c0 27.503906 9.097656 54.792969 25.601562 76.800781l2.398438 3.199219h24l2.398438-3.199219c16.503906-22.007812 25.601562-49.289062 25.601562-76.800781v-112h192v208zm256-96h-48v-192h48zm-1.199219 16c-2.503906 17.167969-8.96875 33.726562-18.890625 48h-7.832031c-9.917969-14.273438-16.375-30.832031-18.886719-48zm1.199219-224h-48v-16h48zm-16-128v16h-16v-16zm-24 32h32c4.414062 0 8 3.585938 8 8v56h-48v-56c0-4.414062 3.585938-8 8-8zm-152 16h16v16h-16zm-16 32h48v32h-48zm-24 48h168v80h-192v-56c0-13.230469 10.769531-24 24-24zm416 336h-416c-10.414062 0-19.214844-6.710938-22.527344-16h461.046875c-3.304687 9.289062-12.105469 16-22.519531 16zm0 0"/><path d="m96 160h-64v48h64zm-16 32h-32v-16h32zm0 0"/><path d="m464 208v-48h-64v48zm-48-32h32v16h-32zm0 0"/><path d="m240 320h16v16h-16zm0 0"/><path d="m240 288h16v16h-16zm0 0"/><path d="m240 256h16v16h-16zm0 0"/></svg>