<?xml version="1.0" encoding="iso-8859-1"?>
<!-- Generator: Adobe Illustrator 19.0.0, SVG Export Plug-In . SVG Version: 6.00 Build 0)  -->
<svg version="1.1" id="Layer_1" xmlns="http://www.w3.org/2000/svg" xmlns:xlink="http://www.w3.org/1999/xlink" x="0px" y="0px"
	 viewBox="0 0 497.576 497.576" style="enable-background:new 0 0 497.576 497.576;" xml:space="preserve">
<g>
	<g>
		<g>
			<path d="M432.808,249.612l16.4,81.976l45.224,9.048l3.144-15.688l-34.776-6.96l-15.6-78.024l-24.888-16.592
				c-3.608-14.592-12.928-26.92-25.472-34.504c5.344-4.632,9.192-10.904,10.56-18.128l23.824-7.944l8.416-58.856l22.76-30.352
				l-12.8-9.6L424.368,97.62l-7.584,53.144L408,153.692v-20.904c0-12.168-7.752-24.376-24.072-33.44
				c-0.336-16.64-6.296-31.912-16.112-43.96c2.008-2.856,8.824-10.6,24.184-10.6c29.52,0,64-10.48,64-40h-16
				c0,18.944-30.168,24-48,24c-19.728,0-30.664,9.304-35.696,15.36c-12.232-9.584-27.592-15.36-44.304-15.36
				c-16.712,0-32.072,5.776-44.304,15.36c-5.032-6.056-15.968-15.36-35.696-15.36c-17.832,0-48-5.056-48-24h-16
				c0,29.52,34.48,40,64,40c15.36,0,22.176,7.744,24.184,10.6c-9.816,12.048-15.776,27.32-16.112,43.96
				c-9.048,5.024-15.416,11.024-19.32,17.44h-18.384l-2.736-19.168L174.4,63.988l-12.8,9.6l22.768,30.368l1.832,12.832H0v312
				h186.984l4.384,28.48l-28.168,21.12l9.592,12.8l35.832-26.872l-5.456-35.528H230.2c5.408,6.896,11.656,13.064,18.608,18.4
				l-0.384,0.128c8.768,26.344,35.512,45.472,63.576,45.472c28.064,0,54.808-19.128,63.584-45.472l-0.352-0.12
				c24.728-18.976,40.76-48.664,40.752-81.912l0.984-15.776l14.4,10.8l-16,104l35.832,26.88l9.592-12.8l-28.168-21.128l16-104
				l-30.472-22.856l5.424-86.952L432.808,249.612z M312,44.788c27.984,0,51.168,20.656,55.288,47.504
				c-14.376-4.648-32.648-7.504-55.288-7.504s-40.912,2.856-55.288,7.504C260.832,65.444,284.016,44.788,312,44.788z M232,132.788
				c0-12.856,21.304-32,80-32s80,19.144,80,32v32c0,8.824-7.176,16-16,16v0.64c-2.624-0.376-5.28-0.64-8-0.64H256
				c-2.72,0-5.376,0.264-8,0.64v-0.64c-8.824,0-16-7.176-16-16V132.788z M216,132.788v20.904l-8.784-2.928l-2.56-17.976H216z
				 M16,132.796h172.488v-0.008l4.288,30.024l23.824,7.944c0.688,3.616,2.056,6.96,3.848,10.04H16V132.796z M175.368,353.26
				l9.16,59.528H16v-216h200.952c-4.672,4.584-8.512,10-11.376,16H32v96h131.04l-1.84,9.2l-34.776,6.952l3.144,15.688l45.224-9.048
				l4.568-22.792h25.136l1.352,21.616L175.368,353.26z M191.192,249.612l9.208-6.136l3.088,49.312H182.56L191.192,249.612z
				 M176.808,239.964l-10.568,52.824H48v-64h145.576L176.808,239.964z M200.704,412.788l-8.072-52.48L207.04,349.5l0.96,15.288
				c0,17.32,4.312,33.624,11.832,48H200.704z M223.984,364.292L216,236.788c0-22.056,17.944-40,40-40v144h16v-144h32V452.38
				C259.216,448.324,224,410.58,223.984,364.292z M312,476.788c-12.696,0-25.256-5.464-34.712-14.08
				c10.88,3.864,22.528,6.08,34.712,6.08c12.184,0,23.824-2.216,34.696-6.072C337.248,471.324,324.696,476.788,312,476.788z
				 M400,364.788c0,45.824-35.216,83.536-80,87.592V196.788h32v144h16v-144c22.056,0,40,17.944,40.016,39.504L400,364.788z"/>
			<rect x="256" y="356.788" width="16" height="16"/>
			<rect x="352" y="356.788" width="16" height="16"/>
			<rect x="32" y="148.788" width="16" height="16"/>
			<rect x="64" y="148.788" width="16" height="16"/>
			<rect x="96" y="148.788" width="16" height="16"/>
		</g>
	</g>
</g>
<g>
</g>
<g>
</g>
<g>
</g>
<g>
</g>
<g>
</g>
<g>
</g>
<g>
</g>
<g>
</g>
<g>
</g>
<g>
</g>
<g>
</g>
<g>
</g>
<g>
</g>
<g>
</g>
<g>
</g>
</svg>
