<svg height="496pt" viewBox="0 0 496 496" width="496pt" xmlns="http://www.w3.org/2000/svg"><path d="m32 32h16v16h-16zm0 0"/><path d="m64 32h16v16h-16zm0 0"/><path d="m96 32h16v16h-16zm0 0"/><path d="m496 368v-368h-496v368h96v-144h16v192h-16v-30.960938h-16v86.960938c0 13.230469 10.769531 24 24 24h32c13.230469 0 24-10.769531 24-24v-104h48v60l3.199219 2.398438c1.394531 1.050781 34.800781 25.601562 92.800781 25.601562s91.40625-24.550781 92.800781-25.601562l3.199219-2.398438v-69.070312l21.023438-12.019532c4.335937-2.46875 7.449218-6.40625 9.25-10.910156h9.726562c4.40625 0 8 3.585938 8 8v56h-6.03125l-17.65625 61.808594-.3125 2.191406c0 17.648438 14.351562 32 32 32s32-14.351562 32-32l-17.96875-64h-6.03125v-32zm-24.03125 97.007812c-.519531 8.359376-7.480469 14.992188-15.96875 14.992188s-15.449219-6.632812-15.96875-14.992188l14-49.007812h3.929688zm8.03125-449.007812v48h-464v-48zm-400 224h-32v-128h160v128h-48v-25.886719l-40-80-40 80zm59.054688-32h-38.109376l19.054688-38.113281zm-3.054688 272h-32c-4.40625 0-8-3.585938-8-8v-40h48v40c0 4.414062-3.59375 8-8 8zm248-60.3125c-9.136719 5.570312-37.335938 20.3125-80 20.3125-42.679688 0-70.886719-14.753906-80-20.3125v-51.617188l61.089844 34.90625c5.742187 3.289063 12.285156 5.023438 18.910156 5.023438s13.167969-1.734375 18.910156-5.023438l61.089844-34.90625zm-69.023438-30.597656c-6.671874 3.8125-15.28125 3.8125-21.953124 0l-98.113282-56.066406c-1.789062-1.03125-2.910156-2.953126-2.910156-5.023438s1.121094-3.992188 2.910156-5.023438l98.113282-56.066406c3.335937-1.902344 7.136718-2.910156 10.976562-2.910156s7.640625 1.007812 10.976562 2.910156l92.902344 53.089844h-103.878906v16h103.878906zm125.023438-69.089844h-9.726562c-1.800782-4.503906-4.921876-8.441406-9.25-10.910156l-98.113282-56.066406c-11.496094-6.574219-26.335937-6.574219-37.832031 0l-98.109375 56.066406c-6.761719 3.863281-10.96875 11.109375-10.96875 18.910156s4.207031 15.046875 10.976562 18.910156l8.902344 5.089844h-35.878906v-80h-16v144h-16v-192h16l.015625 32h79.984375v-160h-192v160h48v96h-64v-272h464v272h-16v-8c0-13.230469-10.769531-24-24-24zm0 0"/></svg>