<?xml version="1.0" encoding="iso-8859-1"?>
<!-- Generator: Adobe Illustrator 19.0.0, SVG Export Plug-In . SVG Version: 6.00 Build 0)  -->
<svg version="1.1" id="Layer_1" xmlns="http://www.w3.org/2000/svg" xmlns:xlink="http://www.w3.org/1999/xlink" x="0px" y="0px"
	 viewBox="0 0 496 496" style="enable-background:new 0 0 496 496;" xml:space="preserve">
<g>
	<g>
		<g>
			<path d="M496,32V16h-24V0h-40c-19.312,0-35.472,13.768-39.192,32H188c-28.672,0-52,23.328-52,52s23.328,52,52,52h256
				c19.848,0,36,16.152,36,36v176c0,19.848-16.152,36-36,36h-12v-30.712c0-37.656-28.56-68.736-65.144-72.808l-6.048-36.32
				c-5.816-34.856-35.68-60.16-71.016-60.16H174.216c-35.336,0-65.208,25.304-71.016,60.16L97.224,280H73.288
				C32.88,280,0,312.872,0,353.288V440h32.552c3.96,31.52,30.872,56,63.448,56s59.488-24.48,63.448-56H272.56
				c3.96,31.52,30.872,56,63.448,56s59.488-24.48,63.448-56H432v-40h12c28.672,0,52-23.328,52-52V172c0-28.672-23.328-52-52-52H188
				c-19.848,0-36-16.152-36-36s16.152-36,36-36h204.808c3.72,18.232,19.872,32,39.192,32h40V64h24V48h-24V32H496z M240,200h49.784
				c27.488,0,50.72,19.68,55.24,46.792L350.56,280H240V200z M118.976,246.792c4.52-27.112,27.752-46.792,55.24-46.792H224v80H113.44
				L118.976,246.792z M96,480c-26.472,0-48-21.528-48-48s21.528-48,48-48s48,21.528,48,48S122.472,480,96,480z M336,480
				c-26.472,0-48-21.528-48-48s21.528-48,48-48s48,21.528,48,48S362.472,480,336,480z M416,424h-16.552
				c-3.96-31.52-30.872-56-63.448-56s-59.488,24.48-63.448,56H159.448c-3.96-31.52-30.872-56-63.448-56s-59.488,24.48-63.448,56H16
				v-70.712C16,321.704,41.696,296,73.288,296h285.424C390.304,296,416,321.704,416,353.288V424z M456,64h-24
				c-13.232,0-24-10.768-24-24s10.768-24,24-24h24V64z"/>
			<rect x="88" y="424" width="16" height="16"/>
			<rect x="328" y="424" width="16" height="16"/>
			<rect x="224" y="312" width="16" height="16"/>
			<rect x="192" y="312" width="16" height="16"/>
			<rect x="160" y="312" width="16" height="16"/>
		</g>
	</g>
</g>
<g>
</g>
<g>
</g>
<g>
</g>
<g>
</g>
<g>
</g>
<g>
</g>
<g>
</g>
<g>
</g>
<g>
</g>
<g>
</g>
<g>
</g>
<g>
</g>
<g>
</g>
<g>
</g>
<g>
</g>
</svg>
