<?xml version="1.0" encoding="iso-8859-1"?>
<!-- Generator: Adobe Illustrator 19.0.0, SVG Export Plug-In . SVG Version: 6.00 Build 0)  -->
<svg version="1.1" id="Layer_1" xmlns="http://www.w3.org/2000/svg" xmlns:xlink="http://www.w3.org/1999/xlink" x="0px" y="0px"
	 viewBox="0 0 496 496" style="enable-background:new 0 0 496 496;" xml:space="preserve">
<g>
	<g>
		<g>
			<path d="M483.712,480C470.96,463.744,400,357.448,400,8V0H96v8c0,349.448-70.96,455.744-83.712,472H0v16h496v-16H483.712z
				 M31.968,480c2.712-4.192,5.832-9.472,9.256-16H408v-16H48.96c26.344-58.648,62.272-183.896,63.024-432h272.032
				c0.752,248.104,36.68,373.352,63.024,432H424v16h30.776c3.424,6.528,6.544,11.808,9.256,16H31.968z"/>
			<path d="M248,112c-74.992,0-136,61.008-136,136s61.008,136,136,136s136-61.008,136-136S322.992,112,248,112z M304,184
				c-32.104,0-58.688,23.792-63.24,54.648C229.016,224.816,211.528,216,192,216h-48v8c0,35.288,28.712,64,64,64h32v56h16v-56v-8v-24
				h32c35.288,0,64-28.712,64-64v-3.608c10.12,17.584,16,37.904,16,59.608c0,66.168-53.832,120-120,120s-120-53.832-120-120
				s53.832-120,120-120c42.632,0,80.04,22.408,101.328,56H304z M335.336,200c-3.824,22.672-23.592,40-47.336,40h-31.336
				c3.824-22.672,23.592-40,47.336-40H335.336z M239.336,272H208c-23.744,0-43.512-17.328-47.336-40H192
				C215.744,232,235.512,249.328,239.336,272z"/>
			<rect x="240" y="400" width="16" height="16"/>
			<rect x="272" y="400" width="16" height="16"/>
			<rect x="208" y="400" width="16" height="16"/>
		</g>
	</g>
</g>
<g>
</g>
<g>
</g>
<g>
</g>
<g>
</g>
<g>
</g>
<g>
</g>
<g>
</g>
<g>
</g>
<g>
</g>
<g>
</g>
<g>
</g>
<g>
</g>
<g>
</g>
<g>
</g>
<g>
</g>
</svg>
