<?xml version="1.0" encoding="iso-8859-1"?>
<!-- Generator: Adobe Illustrator 19.0.0, SVG Export Plug-In . SVG Version: 6.00 Build 0)  -->
<svg version="1.1" id="Capa_1" xmlns="http://www.w3.org/2000/svg" xmlns:xlink="http://www.w3.org/1999/xlink" x="0px" y="0px"
	 viewBox="0 0 496 496" style="enable-background:new 0 0 496 496;" xml:space="preserve">
<g>
	<g>
		<path d="M385.712,317.48L304,290.232v-22.408c8.52-7.048,15.672-15.672,21.056-25.408l23.784-11.896l-16.512-5.512
			c0.144-0.488,0.248-0.992,0.384-1.488C352.528,221.16,368,204.44,368,184v-56h32v-20.528l-41.224-24.736l-19.688-65.632
			C336.016,6.872,326.776,0,316.096,0H179.904c-10.68,0-19.92,6.872-22.992,17.104l-19.688,65.632L96,107.472V128h32v56
			c0,20.44,15.472,37.16,35.288,39.52c0.136,0.488,0.24,1,0.384,1.488l-16.512,5.512l23.784,11.896
			c5.384,9.736,12.536,18.368,21.056,25.416v22.408l-81.704,27.24C87.384,325.104,72,346.456,72,370.592V496h352V370.592
			C424,346.456,408.616,325.104,385.712,317.48z M301.192,236.464C296.56,238.776,291.376,240,286.2,240
			c-11.224,0-21.64-5.576-27.864-14.912l-0.976-1.464c5.368-7.616,16.84-9.864,24.768-4.584
			c8.176,5.448,16.816,10.152,25.816,14.048L301.192,236.464z M208,291.72v-13.432c12.016,6.16,25.592,9.712,40,9.712
			s27.984-3.552,40-9.712v13.432l-40,26.664L208,291.72z M235.44,329.24l-24.312,24.312l-17.608-46.96l5.296-1.768L235.44,329.24z
			 M201.96,255.288c2.592,0.424,5.208,0.712,7.84,0.712c14.928,0,28.856-6.72,38.2-18.128C257.352,249.28,271.272,256,286.2,256
			c2.624,0,5.24-0.288,7.84-0.712C281.552,265.712,265.496,272,248,272C230.504,272,214.448,265.712,201.96,255.288z
			 M297.184,304.824l5.296,1.768l-17.608,46.96L260.56,329.24L297.184,304.824z M335.664,206.632c0.168-2.2,0.336-4.392,0.336-6.632
			v-38.528c9.288,3.312,16,12.112,16,22.528C352,194.536,345.128,203.416,335.664,206.632z M352,152.208
			c-4.672-3.536-10.056-6.184-16-7.392V128h16V152.208z M338.648,71.336L323.312,56l8.256-8.256L338.648,71.336z M324.688,80
			h-25.376L312,67.312L324.688,80z M299.312,16h16.784c3.56,0,6.64,2.296,7.664,5.696l2.592,8.64L312,44.688L291.312,24L299.312,16z
			 M300.688,56L280,76.688L259.312,56L280,35.312L300.688,56z M260.688,80h-25.376L248,67.312L260.688,80z M235.312,16h25.376l8,8
			L248,44.688L227.312,24L235.312,16z M236.688,56L216,76.688L195.312,56L216,35.312L236.688,56z M196.688,80h-25.376L184,67.312
			L196.688,80z M172.24,21.704c1.024-3.408,4.104-5.704,7.664-5.704h16.784l8,8L184,44.688l-14.352-14.352L172.24,21.704z
			 M164.432,47.744L172.688,56l-15.336,15.336L164.432,47.744z M144,184c0-10.416,6.712-19.216,16-22.528V200
			c0,2.24,0.168,4.432,0.336,6.632C150.872,203.416,144,194.536,144,184z M144,152.2V128h16v16.808
			C154.056,146.024,148.672,148.664,144,152.2z M119.552,112l26.664-16h203.568l26.664,16H119.552z M178.784,219.624
			C177.016,213.376,176,206.808,176,200v-72h144v72c0,6.808-1.016,13.376-2.792,19.624c-9.168-3.744-17.952-8.4-26.208-13.904
			c-5.608-3.736-12.144-5.72-18.888-5.72c-9.272,0-17.832,3.728-24.112,10.056C241.72,203.728,233.168,200,223.888,200
			c-6.744,0-13.28,1.984-18.896,5.72C196.736,211.224,187.952,215.88,178.784,219.624z M188.056,233.088
			c9-3.904,17.64-8.6,25.816-14.048c7.944-5.288,19.4-3.032,24.768,4.584l-0.976,1.464C231.432,234.424,221.016,240,209.8,240
			c-5.168,0-10.352-1.224-14.984-3.536L188.056,233.088z M176,312.432l2.328-0.776l26.544,70.792L248,339.312l43.128,43.136
			l26.544-70.792l2.328,0.776V400H176V312.432z M128,480H88v-48h40V480z M128,416H88v-45.408c0-17.24,10.992-32.488,27.352-37.944
			L128,328.432V416z M304,480H192v-32h112V480z M352,480h-32v-48H176v48h-32V323.096l16-5.336V416h176v-98.232l16,5.336V480z
			 M408,480h-40v-48h40V480z M408,416h-40v-87.568l12.656,4.216C397.008,338.104,408,353.352,408,370.592V416z"/>
	</g>
</g>
<g>
	<g>
		<circle cx="208" cy="168" r="8"/>
	</g>
</g>
<g>
	<g>
		<circle cx="288" cy="168" r="8"/>
	</g>
</g>
<g>
</g>
<g>
</g>
<g>
</g>
<g>
</g>
<g>
</g>
<g>
</g>
<g>
</g>
<g>
</g>
<g>
</g>
<g>
</g>
<g>
</g>
<g>
</g>
<g>
</g>
<g>
</g>
<g>
</g>
</svg>
