<svg height="496pt" viewBox="-56 0 496 496" width="496pt" xmlns="http://www.w3.org/2000/svg"><path d="m199.824219 104c17.648437 0 32-14.351562 32-32h-16c0 5.894531-3.238281 11-8 13.777344v-21.777344h-16v21.777344c-4.761719-2.777344-8-7.882813-8-13.777344h-16c0 17.648438 14.351562 32 32 32zm0 0"/><path d="m239.824219 168c0 4.417969-3.582031 8-8 8s-8-3.582031-8-8 3.582031-8 8-8 8 3.582031 8 8zm0 0"/><path d="m159.824219 168c0 4.417969-3.582031 8-8 8s-8-3.582031-8-8 3.582031-8 8-8 8 3.582031 8 8zm0 0"/><path d="m383.648438 430.175781-9.921876-69.433593c-4.085937-28.621094-24.78125-51.925782-52.71875-59.375l-73.183593-19.519532v-24.816406c9.359375-9.191406 16.488281-20.648438 20.457031-33.488281 19.933594-2.238281 35.542969-19.015625 35.542969-39.542969 0-9.039062-3.128907-17.296875-8.207031-24h.207031v-20.6875l23.320312-23.3125c5.597657-5.609375 8.679688-13.0625 8.679688-20.976562 0-12.304688-7.734375-23.472657-19.257813-27.792969l-10.429687-3.910157c-1.464844-.550781-2.96875-.984374-4.441407-1.519531-5.863281-23.136719-21.152343-42.386719-42.671874-53.144531-11.3125-5.664062-24-8.65625-36.671876-8.65625h-46.527343c-17.191407 0-34.238281 5.679688-48 16-9.0625 6.800781-14.777344 17.246094-15.792969 28.457031l-5.902344.839844c-14.992187 2.152344-26.304687 15.191406-26.304687 30.34375 0 3.910156.734375 7.742187 2.191406 11.375l13.808594 34.527344v4.570312c0 9.789063 1.769531 19.597657 5.128906 28.808594-7.152344 6.460937-12 15.277344-12.945313 25.183594-1.070312 11.253906 2.648438 22.488281 10.207032 30.804687 6.554687 7.210938 15.554687 11.539063 25.144531 12.625 3.960937 12.847656 11.089844 24.304688 20.457031 33.503906v24.816407l-73.175781 19.519531c-27.9375 7.449219-48.632813 30.753906-52.71875 59.378906l-9.921875 69.429688 15.824219 3.570312v62.246094h352v-62.246094zm-25.761719-67.160156 7.824219 54.808594-58.605469 13.230469-3.3125-39.71875-15.945313 1.328124 7.28125 87.335938h-39.304687v-50.425781l-28.207031-42.316407c50.054687-13.914062 72.96875-55.019531 80.6875-72.722656l8.574218 2.289063c21.738282 5.800781 37.824219 23.929687 41.007813 46.191406zm-118.0625 113.671875-24.695313-24.695312-13.417968-60.351563c3.074218-.207031 6.058593-.519531 8.976562-.921875l29.136719 43.707031zm-48-103.113281c-17.703125-14.796875-30-34.460938-35.921875-56.207031 8.691406 6.144531 20.433594 10.632812 35.921875 10.632812s27.230469-4.488281 35.917969-10.632812c-5.917969 21.738281-18.214844 41.402343-35.917969 56.207031zm-30.417969-9.023438c-21.214844-16.816406-34.070312-47.78125-39.230469-62.496093l14.207031-3.789063c1.945313 24.207031 10.609376 47.117187 25.023438 66.285156zm-25.359375-2.878906c-26.101563-15.183594-39.550781-38.609375-45.175781-51.273437l15.769531-4.207032c4.175781 12.28125 13.625 36.046875 29.40625 55.480469zm45.890625 29.96875-13.417969 60.351563-24.695312 24.695312v-42.261719l29.136719-43.707031c2.910156.394531 5.894531.707031 8.976562.921875zm1.191406 68.367187 8.695313-39.136718 8.695312 39.128906 19.992188 20h-57.375zm64.847656-98.800781c15.558594-19.34375 24.894532-42.832031 29.03125-55.015625l15.671876 4.175782c-5.664063 12.480468-19.078126 35.601562-44.703126 50.839843zm13.496094-59.152343c-5.160156 14.714843-18.015625 45.6875-39.234375 62.496093 14.417969-19.167969 23.082031-42.078125 25.027344-66.285156zm18.351563-159.300782v4.636719c-2.542969-1.117187-5.207031-2.015625-8-2.582031v-3.425782c2.671875.449219 5.335937.898438 8 1.371094zm-8.335938 63.878906c.183594-2.191406.335938-4.394531.335938-6.632812v-38.527344c9.289062 3.3125 16 12.113282 16 22.527344 0 10.535156-6.871094 19.414062-16.335938 22.632812zm-142.0625-177.832031c11.007813-8.257812 24.644531-12.800781 38.398438-12.800781h46.527343c10.199219 0 20.410157 2.40625 29.511719 6.96875 14.046875 7.023438 24.824219 18.535156 30.929688 32.566406-19.554688-5.863281-39.585938-10.175781-59.839844-12.710937-15-1.871094-30.289063-2.824219-45.441406-2.824219h-8.222657c-13.578124 0-27.234374.792969-40.753906 2.304688 1.320313-5.335938 4.425782-10.152344 8.890625-13.503907zm-29.035156 32.34375 11.351563-1.617187c16.355468-2.34375 33.027343-3.527344 49.546874-3.527344h8.222657c14.488281 0 29.105469.902344 43.457031 2.703125 27.167969 3.402344 53.925781 9.992187 79.542969 19.601563l10.433593 3.910156c5.3125 1.992187 8.878907 7.136718 8.878907 12.808594 0 3.648437-1.425781 7.089843-4 9.671874l-22.726563 22.730469c-57.53125-10.210937-116.273437-15.425781-174.714844-15.425781h-9.144531l-12.367187-30.929688c-.695313-1.734374-1.046875-3.566406-1.046875-5.429687 0-7.242187 5.40625-13.472656 12.566406-14.496094zm20.808594 82.855469c-4.933594 0-9.679688.9375-14.121094 2.519531-1.894531-6-3.054687-12.230469-3.230469-18.519531h6.527344c19.984375 0 40.007812.664062 60 1.886719-12.230469 8.96875-27.117188 14.113281-42.550781 14.113281zm-19.144531 56.144531c-4.597657-5.066406-6.773438-11.640625-6.117188-18.519531.863281-9.058594 7.269531-16.632812 15.878906-19.898438v38.273438c0 2.230469.152344 4.425781.335938 6.609375-3.808594-1.304687-7.328125-3.433594-10.097656-6.464844zm25.769531-.144531v-40c24.609375 0 48.183593-10.550781 64.726562-28.503906 21.175781 1.777344 42.289063 4.238281 63.273438 7.375v61.128906c0 35.289062-28.710938 64-64 64-35.289063 0-64-28.710938-64-64zm64 80c14.574219 0 28.214843-3.984375 40-10.824219v17.65625c-1.367188 4.152344-9.769531 25.167969-40 25.167969-30.144531 0-38.558594-20.816406-40-25.183594v-17.640625c11.785156 6.839844 25.421875 10.824219 40 10.824219zm-166.0625 83.015625c3.183593-22.261719 19.277343-40.390625 41.007812-46.183594l8.574219-2.289062c7.71875 17.703125 30.632812 58.808593 80.6875 72.722656l-28.207031 42.308594v50.425781h-39.304688l7.28125-87.335938-15.945312-1.328124-3.3125 39.71875-58.605469-13.230469zm6.0625 74.351563 43.375 9.792968-2.734375 32.839844h-40.640625zm320 42.632812h-40.640625l-2.734375-32.839844 43.375-9.792968zm0 0"/><path d="m191.824219 240c17.648437 0 32-14.351562 32-32h-16c0 8.824219-7.175781 16-16 16s-16-7.175781-16-16h-16c0 17.648438 14.351562 32 32 32zm0 0"/></svg>