<svg height="496pt" viewBox="0 -24 496 496" width="496pt" xmlns="http://www.w3.org/2000/svg"><path d="m302.441406 264h-108.882812l54.441406 87.097656zm-28.882812 16-25.558594 40.902344-25.558594-40.902344zm0 0"/><path d="m480 320h-16v-40c0-13.230469-10.769531-24-24-24h-9.761719l-5.398437-21.574219c-5.582032-22.378906-24.121094-38.601562-46.425782-41.761719l11.625-40.664062h17.960938c13.230469 0 24-10.769531 24-24s-10.769531-24-24-24h-4.246094l2.285156-8h41.960938v-80h-164.320312c-8.800782-9.792969-21.511719-16-35.679688-16s-26.878906 6.207031-35.679688 16h-164.320312v80h41.960938l2.285156 8h-4.246094c-13.230469 0-24 10.769531-24 24s10.769531 24 24 24h17.960938l11.613281 40.664062c-22.300781 3.160157-40.839844 19.382813-46.421875 41.761719l-5.390625 21.574219h-9.761719c-13.230469 0-24 10.769531-24 24v40h-16c-8.824219 0-16 7.175781-16 16v48c0 8.824219 7.175781 16 16 16h16v48h432v-48h16c8.824219 0 16-7.175781 16-16v-48c0-8.824219-7.175781-16-16-16zm-432-16 24 18 24-18v20l-24 18-24-18zm106.335938-16c9.863281 0 18.617187 5.921875 22.335937 15.214844l.328125.785156h-65v-16zm-42.335938 32h71.734375l6.738281 16h-78.472656zm0 32h85.214844l6.738281 16h-11.953125c-8.824219 0-16 7.175781-16 16v.007812l-7.191406-9.59375c-3-4.015624-7.792969-6.414062-12.808594-6.414062h-44zm44 32 12 16h-88v-16zm-76 32h100l12 16h-112zm112-10.664062v-21.335938h112v21.34375l-20 26.65625h-72zm124 10.664062h100v16h-112zm100-16h-88l12-16h76zm-76-32c-5.015625 0-9.808594 2.398438-12.800781 6.40625l-7.199219 9.601562v-.007812c0-8.824219-7.175781-16-16-16h-11.953125l6.738281-16h85.214844v16zm44-64h-65l.382812-.910156c3.664063-9.167969 12.417969-15.089844 22.28125-15.089844h42.335938zm-71.734375 16h71.734375v16h-78.480469zm87.734375-16 24 18 24-18v20l-24 18-24-18zm48-24v4l-24 18-24-18v-4c0-4.414062 3.585938-8 8-8h32c4.414062 0 8 3.585938 8 8zm-144.640625-88c-3.902344-27.097656-27.207031-48-55.359375-48s-51.457031 20.902344-55.359375 48h-32.234375c4.058594-44.785156 41.769531-80 87.59375-80s83.535156 35.214844 87.59375 80zm-16.167969 0h-78.382812c3.71875-18.230469 19.871094-32 39.191406-32s35.472656 13.769531 39.191406 32zm-167.191406 16.464844c1.800781-.25 3.617188-.464844 5.480469-.464844h48.28125l-4.007813 16h-49.753906zm250.519531-.464844c1.863281 0 3.671875.214844 5.480469.464844v15.535156h-49.753906l-4.007813-16zm45.480469-80c0 4.40625-3.585938 8-8 8h-32c-4.414062 0-8-3.59375-8-8s3.585938-8 8-8h32c4.414062 0 8 3.59375 8 8zm-28.894531-24h-11.105469c-13.230469 0-24 10.769531-24 24 0 12.367188 9.433594 22.457031 21.464844 23.742188l-11.503906 40.257812h-10.367188c-3.304688-43.0625-32.851562-78.894531-72.707031-91.320312 1.714843-1.441407 3.289062-3.023438 4.785156-4.679688h105.710937zm44.894531-72v16h-40v16h40v16h-138.800781c1.785156-5.015625 2.800781-10.382812 2.800781-16h80v-16h-80c0-5.617188-1.023438-10.984375-2.800781-16zm-184-16c17.648438 0 32 14.351562 32 32v16c0 17.648438-14.351562 32-32 32s-32-14.351562-32-32v-16c0-17.648438 14.351562-32 32-32zm-45.199219 16c-1.777343 5.015625-2.800781 10.382812-2.800781 16h-136v-16zm-138.800781 32h136c0 5.617188 1.023438 10.984375 2.800781 16h-138.800781zm42.609375 32h105.710937c1.496094 1.664062 3.070313 3.238281 4.785157 4.679688-39.859375 12.425781-69.402344 48.257812-72.707031 91.320312h-10.367188l-11.503906-40.257812c12.039062-1.285157 21.472656-11.375 21.472656-23.742188 0-13.230469-10.769531-24-24-24h-11.105469zm-26.609375 32c0-4.40625 3.585938-8 8-8h32c4.414062 0 8 3.59375 8 8s-3.585938 8-8 8h-32c-4.414062 0-8-3.59375-8-8zm6.671875 110.296875c2.550781-10.207031 8.945313-18.554687 17.328125-23.90625v25.609375h78.246094l7.992187-32h115.515625l7.988282 32h78.257812v-25.609375c8.382812 5.363281 14.777344 13.699219 17.328125 23.90625l4.433594 17.703125h-5.761719c-10.414062 0-19.214844 6.710938-22.527344 16h-43.808594c-16.457031 0-31.03125 9.863281-37.089843 25.015625l-29.886719 70.984375h-53.375l-29.832031-70.847656c-6.113281-15.289063-20.6875-25.152344-37.144531-25.152344h-43.808594c-3.3125-9.289062-12.113282-16-22.527344-16h-5.761719zm-30.671875 33.703125h32c4.414062 0 8 3.585938 8 8v4l-24 18-24-18v-4c0-4.414062 3.585938-8 8-8zm-40 112v-48h16v48zm32-40 24 18 24-18v24h-16c-8.824219 0-16 7.175781-16 16v48h-16zm384 88v-48c0-8.824219-7.175781-16-16-16h-16v-24l24 18 24-18v88zm48-48h-16v-48h16zm0 0"/><path d="m208 400h80v16h-80zm0 0"/></svg>