<svg height="496pt" viewBox="0 -56 496 496" width="496pt" xmlns="http://www.w3.org/2000/svg"><path d="m216 32h48v16h-48zm0 0"/><path d="m280 32h48v16h-48zm0 0"/><path d="m494.472656 122.480469-19.089844-50.90625c-3.496093-9.316407-12.527343-15.574219-22.472656-15.574219h-81.621094l-8.632812-37.398438c-2.527344-10.953124-12.144531-18.601562-23.382812-18.601562h-134.546876c-11.238281 0-20.855468 7.648438-23.382812 18.609375l-8.632812 37.390625h-12.710938v-32c0-8.824219-7.175781-16-16-16h-80c-8.824219 0-16 7.175781-16 16v32h-4.910156c-9.953125 0-18.984375 6.257812-22.480469 15.574219l-19.082031 50.890625c-1.015625 2.703125-1.527344 5.535156-1.527344 8.4375v213.097656c0 13.230469 10.769531 24 24 24h178.71875c21 10.144531 44.441406 16 69.28125 16s48.28125-5.855469 69.28125-16h130.71875c13.230469 0 24-10.769531 24-24v-213.097656c0-2.902344-.511719-5.734375-1.527344-8.421875zm-41.5625-50.480469c3.320313 0 6.328125 2.089844 7.496094 5.191406l16.050781 42.808594h-83.113281c-3.078125-3.59375-6.289062-7.0625-9.679688-10.375l-8.679687-37.625zm-255.972656-49.800781c.839844-3.648438 4.046875-6.199219 7.789062-6.199219h134.546876c3.742187 0 6.949218 2.550781 7.789062 6.199219l16.304688 70.640625c-25.933594-18.121094-57.398438-28.839844-91.367188-28.839844s-65.433594 10.71875-91.367188 28.839844zm-36.601562 87.425781c-3.382813 3.304688-6.59375 6.78125-9.679688 10.375h-22.863281c5.078125-6.703125 8.207031-14.960938 8.207031-24s-3.128906-17.296875-8.207031-24h41.222656zm-88.335938-13.625c0-13.230469 10.769531-24 24-24s24 10.769531 24 24-10.769531 24-24 24-24-10.769531-24-24zm24-72h16v32h-16zm48 32h-16v-32h16zm-80-32h16v32h-16zm-28.40625 53.191406c1.167969-3.101562 4.183594-5.191406 7.496094-5.191406h21.109375c-5.070313 6.703125-8.199219 14.960938-8.199219 24s3.128906 17.296875 8.207031 24h-44.664062zm60.40625 274.808594v-120h-16v120h-56c-4.40625 0-8-3.59375-8-8v-208h64v80h16v-80h42.511719c-16.710938 25.273438-26.511719 55.496094-26.511719 88 0 52.367188 25.398438 98.792969 64.40625 128zm112 .808594v-.808594h-1.671875c-46.441406-23.921875-78.328125-72.265625-78.328125-128 0-79.398438 64.601562-144 144-144s144 64.601562 144 144-64.601562 144-144 144c-23.007812 0-44.6875-5.558594-64-15.191406zm264-.808594h-104.40625c28.773438-21.550781 50.015625-52.480469 59.214844-88.28125 20.726562-1.472656 37.191406-18.621094 37.191406-39.71875s-16.464844-38.246094-37.191406-39.71875c-4.472656-17.394531-11.671875-33.6875-21.320313-48.28125h74.511719v208c0 4.40625-3.59375 8-8 8zm-41.863281-151.105469c10.253906 2.730469 17.863281 12 17.863281 23.105469s-7.609375 20.375-17.863281 23.105469c1.101562-7.5625 1.863281-15.242188 1.863281-23.105469s-.761719-15.542969-1.863281-23.105469zm0 0"/><path d="m432 88h16v16h-16zm0 0"/><path d="m400 88h16v16h-16zm0 0"/><path d="m372.167969 303.566406c18.207031-22.902344 27.832031-50.40625 27.832031-79.566406 0-70.574219-57.425781-128-128-128-29.160156 0-56.664062 9.625-79.566406 27.832031l9.957031 12.519531c2.539063-2.015624 5.136719-3.902343 7.792969-5.679687l25.496094 76.785156c-2.3125 5.0625-3.679688 10.632813-3.679688 16.542969 0 1.855469.304688 3.625.542969 5.414062l-72.09375-14.839843c2.144531-25.511719 12.878906-49.429688 30.886719-68.140625l-11.527344-11.097656c-23.097656 24-35.808594 55.496093-35.808594 88.664062 0 70.574219 57.425781 128 128 128 33.167969 0 64.664062-12.710938 88.664062-35.808594l-11.097656-11.527344c-4.910156 4.726563-10.207031 8.902344-15.773437 12.609376l-25.480469-76.738282c2.320312-5.054687 3.6875-10.625 3.6875-16.535156 0-1.855469-.304688-3.625-.542969-5.414062l72.160157 14.855468c-1.824219 21.984375-10.015626 42.621094-23.96875 60.167969zm-100.167969-191.566406c17.929688 0 34.824219 4.335938 49.863281 11.855469l-53.816406 60.542969c-7.679687.769531-14.679687 3.648437-20.460937 8.144531l-23.195313-69.847657c14.777344-7 30.875-10.695312 47.609375-10.695312zm0 136c-13.230469 0-24-10.769531-24-24s10.769531-24 24-24 24 10.769531 24 24-10.769531 24-24 24zm-111.648438-17.113281 79.183594 16.304687c4.359375 6.082032 10.320313 10.914063 17.328125 13.792969l-48.773437 54.871094c-27.25-19.023438-45.585938-49.824219-47.738282-84.96875zm111.648438 105.113281c-17.929688 0-34.824219-4.335938-49.863281-11.855469l53.816406-60.542969c7.679687-.769531 14.679687-3.648437 20.460937-8.144531l23.171876 69.78125c-14.753907 6.96875-30.90625 10.761719-47.585938 10.761719zm15.136719-148.984375 48.773437-54.871094c27.25 19.015625 45.59375 49.816407 47.746094 84.96875l-79.183594-16.304687c-4.367187-6.082032-10.328125-10.914063-17.335937-13.792969zm0 0"/><path d="m32 288h16v16h-16zm0 0"/><path d="m32 320h16v16h-16zm0 0"/></svg>