<svg height="496pt" viewBox="0 0 496 496" width="496pt" xmlns="http://www.w3.org/2000/svg"><path d="m496 0h-496v416h64v56c0 13.230469 10.769531 24 24 24h320c13.230469 0 24-10.769531 24-24v-56h64zm-16 16v48h-464v-48zm-64 456c0 4.40625-3.59375 8-8 8h-320c-4.40625 0-8-3.59375-8-8v-128c0-4.40625 3.59375-8 8-8h110.3125c4.757812 0 9.359375-1.390625 13.3125-4.03125l15.933594-10.625c1.320312-.878906 2.855468-1.34375 4.441406-1.34375h176c4.40625 0 8 3.59375 8 8zm16-72v-72c0-13.230469-10.769531-24-24-24h-176c-4.753906 0-9.359375 1.390625-13.3125 4.03125l-15.945312 10.625c-1.308594.878906-2.847657 1.34375-4.429688 1.34375h-110.3125c-13.230469 0-24 10.769531-24 24v56h-48v-320h464v320zm0 0"/><path d="m32 32h16v16h-16zm0 0"/><path d="m64 32h16v16h-16zm0 0"/><path d="m96 32h16v16h-16zm0 0"/><path d="m96 464h176v-112h-176zm16-32h16v16h-16zm112-16h-16v-16h16zm16-16h16v16h-16zm-64 16v-16h16v16zm48 16v16h-80v-16zm-16-48v-16h16v16zm-16 0h-16v-16h16zm-32 0h-16v-16h16zm0 16v16h-16v-16zm-32 16h-16v-16h16zm112 32v-16h16v16zm16-64h-16v-16h16zm-128-16v16h-16v-16zm0 0"/><path d="m288 464h112v-112h-112zm16-32h16v16h-16zm48-32v16h-16v-16zm-16-16v-16h16v16zm32 16h16v16h-16zm-16 32v16h-16v-16zm-32-16h-16v-16h16zm48 32v-16h16v16zm16-64h-16v-16h16zm-64-16v16h-16v-16zm0 0"/><path d="m291 145.566406 72.191406 57.753906-72.191406 57.75 10 12.496094 87.808594-70.246094-87.808594-70.25zm0 0"/><path d="m195 133.070312-87.808594 70.25 87.808594 70.246094 10-12.496094-72.191406-57.75 72.191406-57.753906zm0 0"/><path d="m212.105469 284.070312 56.640625-166.636718 15.148437 5.148437-56.636719 166.636719zm0 0"/></svg>