<?xml version="1.0" encoding="iso-8859-1"?>
<!-- Generator: Adobe Illustrator 19.0.0, SVG Export Plug-In . SVG Version: 6.00 Build 0)  -->
<svg version="1.1" id="Layer_1" xmlns="http://www.w3.org/2000/svg" xmlns:xlink="http://www.w3.org/1999/xlink" x="0px" y="0px"
	 viewBox="0 0 502.536 502.536" style="enable-background:new 0 0 502.536 502.536;" xml:space="preserve">
<g>
	<g>
		<g>
			<path d="M425.304,184.844l-111.688,37.232l34.104,59.68l-71.936,113.032l73.624,105.168V450.58h84.64l68.488-119.848
				L425.304,184.844z M337.2,231.084l80.312-26.768l62.968,118.936l-87.968,4.632L337.2,231.084z M374.616,328.82l-25.208,1.328
				v-45.44L374.616,328.82z M424.768,434.58h-91.36v14.624l-38.384-54.832l38.384-60.32v12.96l145.784-7.672L424.768,434.58z"/>
			<rect x="333.408" y="402.58" width="16" height="16"/>
			<rect x="365.408" y="402.58" width="16" height="16"/>
			<rect x="397.408" y="402.58" width="16" height="16"/>
			<path d="M252.96,114.564l13.544,21.664l-36.816,24.544l132.872,10.224l50.504-121.192L368.68,71.996L330.112,2.58H192.976
				L107.04,140.068l84.176,74.832L252.96,114.564z M320.704,18.58l41.432,74.584l19.616-9.808l-29.504,70.808l-75.12-5.776
				l11.184-7.456L211.84,18.58H320.704z M127.776,137.092l69.632-111.416l46.088,73.744l-55.904,90.84L127.776,137.092z"/>
			<rect x="334.692" y="94.219" transform="matrix(-0.8661 0.4999 -0.4999 -0.8661 690.592 19.4393)" width="16" height="16"/>
			<rect x="318.697" y="66.518" transform="matrix(-0.8661 0.4999 -0.4999 -0.8661 646.8971 -24.2556)" width="16" height="16"/>
			<rect x="302.685" y="38.8" transform="matrix(0.5 0.866 -0.866 0.5 195.8688 -245.6592)" width="16" height="16"/>
			<path d="M138.568,218.156L0,228.82l50.104,25.056L4.136,330.484L72.768,450.58h172l9.336-112h-65.36L138.568,218.156z
				 M22.68,330.676l50.032-83.392l-13.896-6.944l69.432-5.336l27.616,66.264l-9.384-6.256L77.136,425.988L22.68,330.676z
				 M182.984,338.58h-41.472l10.824-20.432L182.984,338.58z M230.048,434.58H90.696l42.352-80h103.664L230.048,434.58z"/>
			<rect x="78.012" y="260.429" transform="matrix(-0.8661 -0.4999 0.4999 -0.8661 26.3197 543.9097)" width="16" height="16"/>
			<rect x="62.029" y="288.148" transform="matrix(-0.8661 -0.4999 0.4999 -0.8661 -17.3628 587.6455)" width="16" height="16"/>
			<rect x="46.04" y="315.853" transform="matrix(-0.8661 -0.4999 0.4999 -0.8661 -61.0492 631.3525)" width="16" height="16"/>
			<path d="M197.408,266.58c0,30.88,25.12,56,56,56s56-25.12,56-56s-25.12-56-56-56S197.408,235.7,197.408,266.58z M293.408,266.58
				c0,22.056-17.944,40-40,40c-22.056,0-40-17.944-40-40c0-22.056,17.944-40,40-40C275.464,226.58,293.408,244.524,293.408,266.58z"
				/>
		</g>
	</g>
</g>
<g>
</g>
<g>
</g>
<g>
</g>
<g>
</g>
<g>
</g>
<g>
</g>
<g>
</g>
<g>
</g>
<g>
</g>
<g>
</g>
<g>
</g>
<g>
</g>
<g>
</g>
<g>
</g>
<g>
</g>
</svg>
