<?xml version="1.0" encoding="iso-8859-1"?>
<!-- Generator: Adobe Illustrator 19.0.0, SVG Export Plug-In . SVG Version: 6.00 Build 0)  -->
<svg version="1.1" id="Layer_1" xmlns="http://www.w3.org/2000/svg" xmlns:xlink="http://www.w3.org/1999/xlink" x="0px" y="0px"
	 viewBox="0 0 496 496" style="enable-background:new 0 0 496 496;" xml:space="preserve">
<g>
	<g>
		<g>
			<rect x="480" y="480" width="16" height="16"/>
			<path d="M382.896,347.944L355.312,320h-41.776l-40-16H256v-64v-8v-32h40c66.168,0,120-53.832,120-120v-8h-56
				c-44.464,0-83.272,24.36-104,60.384V103.4c20.424-2.832,32-16.8,32-39.4c0-26.096-15.584-64-40-64s-40,37.904-40,64
				c0,22.6,11.576,36.568,32,39.4v68.984C219.272,136.36,180.464,112,136,112H80v8c0,66.168,53.832,120,120,120h40v64h-20l-24,32
				h-40.12l-40,56H75.92l-64,88H0v16h464v-16h-3.424L382.896,347.944z M360,88h39.696c-4.096,53.624-49.04,96-103.696,96h-39.696
				C260.4,130.376,305.344,88,360,88z M200,224c-54.656,0-99.6-42.376-103.696-96H136c54.656,0,99.6,42.376,103.696,96H200z M224,64
				c0-21.984,13.008-48,24-48s24,26.016,24,48c0,16.6-7.4,24-24,24C231.4,88,224,80.6,224,64z M31.712,480l52.36-72h40.04l40-56
				h32.568l37.656,37.656l11.312-11.312l-35.096-35.096L228,320h42.464l40,16h38.224l13.072,13.08l-32.184,12.872l-9.168,27.512
				l15.176,5.064l6.832-20.488l30.168-12.064L442.016,480H31.712z"/>
			<rect x="392" y="448" width="16" height="16"/>
			<rect x="360" y="448" width="16" height="16"/>
			<rect x="328" y="448" width="16" height="16"/>
		</g>
	</g>
</g>
<g>
</g>
<g>
</g>
<g>
</g>
<g>
</g>
<g>
</g>
<g>
</g>
<g>
</g>
<g>
</g>
<g>
</g>
<g>
</g>
<g>
</g>
<g>
</g>
<g>
</g>
<g>
</g>
<g>
</g>
</svg>
