<?xml version="1.0" encoding="iso-8859-1"?>
<!-- Generator: Adobe Illustrator 19.0.0, SVG Export Plug-In . SVG Version: 6.00 Build 0)  -->
<svg version="1.1" id="Capa_1" xmlns="http://www.w3.org/2000/svg" xmlns:xlink="http://www.w3.org/1999/xlink" x="0px" y="0px"
	 viewBox="0 0 497.08 497.08" style="enable-background:new 0 0 497.08 497.08;" xml:space="preserve">
<g>
	<g>
		<path d="M408.54,32h-8.192C385.252,11.944,361.796,0,336.54,0c-25.264,0-48.72,11.952-63.816,32h-8.184c-8.824,0-16,7.184-16,16
			v16c0,5.944,3.296,11.08,8.12,13.84c-0.024,0.728-0.12,1.432-0.12,2.16c0,26.184,12.704,49.4,32.208,64H184.54v-8h-37.696
			c-7.904-5.24-16.944-8-26.304-8c-26.472,0-48,21.528-48,48s21.528,48,48,48c13.704,0,26.464-5.784,35.592-16h28.408v-8h6.496
			c-4.104,7.072-6.496,15.256-6.496,24c0,26.472,21.528,48,48,48c3.576,0,7.256-0.488,11.16-1.48l24.424,12.208l1.368-2.744
			l16.488,8.432l-59.168,19.728c-9.936,3.304-18.616,9.936-24.44,18.672c-6.592,9.888-9.224,21.8-7.416,33.52l14.872,96.696
			l68-9.712l-12.064-72.56l40.76-5.824l32.032,128.144l68.736-11.272l-30.256-132.512c2.792-1.888,5.464-3.96,7.856-6.352
			c10.096-10.08,15.648-23.48,15.648-37.752V288v-8V178.24v-0.944v-0.904c0-1.128-0.224-2.2-0.336-3.304
			c-0.104-1.016-0.136-2.048-0.312-3.048c-0.032-0.176-0.088-0.336-0.12-0.504c-1.864-10.192-7.344-19.24-15.272-25.656
			c19.408-14.616,32.04-37.776,32.04-63.88c0-0.728-0.096-1.44-0.12-2.16c4.824-2.76,8.12-7.896,8.12-13.84V48
			C424.54,39.184,417.364,32,408.54,32z M168.54,192h-20.168l-2.4,3.176C139.82,203.328,130.548,208,120.54,208
			c-17.648,0-32-14.352-32-32s14.352-32,32-32c6.8,0,13.368,2.216,19.008,6.416l2.128,1.584h26.864V192z M336.54,16
			c15.784,0,30.728,5.816,42.28,16h-84.56C305.812,21.816,320.756,16,336.54,16z M373.228,64h-17.376l-16-16h17.376L373.228,64z
			 M333.228,64h-17.376l-16-16h17.376L333.228,64z M264.54,48h12.688l16,16H264.54V48z M184.54,184v-24h116.512
			c-2.712,7.896-4.936,15.904-6.768,24h-35.6c-7.616-5-16.592-8-26.144-8c-9.784,0-18.88,2.952-26.48,8H184.54z M291.236,200
			c-0.784,5.136-1.392,10.296-1.832,15.488L278.42,210c-1.088-3.568-2.704-6.856-4.544-10H291.236z M260.964,261.264l-15.784-7.888
			l-3.088,0.968c-3.584,1.136-6.624,1.656-9.552,1.656c-17.648,0-32-14.352-32-32s14.352-32,32-32
			c14.944,0,28.088,10.608,31.24,25.216l0.816,3.752l13.208,6.608L260.964,261.264z M247.3,361.232l12.072,72.568l-36.128,5.16
			l-12.472-81.056c-1.192-7.776,0.544-15.656,4.912-22.208c3.856-5.784,9.608-10.176,16.184-12.376l27.264-9.088l12.44,43.536
			L247.3,361.232z M322.452,366.672l32.24-4.608c2.56-0.368,5.08-0.984,7.552-1.72l5.664,24.808l-39.424,5.632L322.452,366.672z
			 M387.908,472.784l-37.392,6.128l-18.136-72.52l39.096-5.584L387.908,472.784z M384.54,309.192
			c0,9.992-3.888,19.384-10.952,26.448c-5.688,5.688-13.2,9.448-21.168,10.576l-64.848,9.264l-13.232-46.32l33.176-11.056
			c2.32,0.48,4.68,0.72,7.032,0.72c9.048,0,17.992-3.504,24.6-10.12c0.224-0.224,0.392-0.48,0.608-0.712h44.784V309.192z
			 M384.54,272h-34.32l34.32-58.016V272z M384.54,177.296v0.944c0,2.528-0.6,5.064-1.464,6.832l-51.76,87.488
			c-0.888,1.792-2.072,3.424-3.496,4.84c-5.424,5.416-13.776,6.976-20.368,4.048l-30.816-15.768l12.28-24.544l18.864,9.424
			l45.488-81.04c2.664-5.792,8.504-9.52,14.88-9.52c7.912,0,14.528,5.632,16.056,13.088
			C384.42,174.464,384.54,175.872,384.54,177.296z M304.916,223.016c1.232-22.304,5.912-44.12,13.936-65.056
			c5.696,1.296,11.6,2.04,17.688,2.04c1.296,0,2.56-0.136,3.848-0.192c-0.472,0.808-0.968,1.6-1.36,2.456L304.916,223.016z
			 M336.54,144c-35.288,0-64-28.712-64-64h128C400.54,115.288,371.828,144,336.54,144z M395.852,64l-16-16h28.688l0.016,16H395.852z
			"/>
	</g>
</g>
<g>
</g>
<g>
</g>
<g>
</g>
<g>
</g>
<g>
</g>
<g>
</g>
<g>
</g>
<g>
</g>
<g>
</g>
<g>
</g>
<g>
</g>
<g>
</g>
<g>
</g>
<g>
</g>
<g>
</g>
</svg>
