<svg height="496pt" viewBox="0 0 496 496" width="496pt" xmlns="http://www.w3.org/2000/svg"><path d="m370.070312 463.679688c77.875-44.070313 125.929688-125.75 125.929688-215.679688 0-136.742188-111.246094-248-248-248s-248 111.257812-248 248c0 89.929688 48.054688 171.609375 125.929688 215.679688-3.953126 5.097656-7.503907 10.550781-10.683594 16.320312h-83.246094v16h432v-16h-83.246094c-3.179687-5.769531-6.738281-11.222656-10.683594-16.320312zm70.496094-86.3125-15.09375-12.933594c-6.015625-5.160156-9.472656-12.648438-9.472656-20.578125v-22.558594c0-18.578125-11.839844-35.007813-29.472656-40.882813-11.078125-3.703124-18.527344-14.03125-18.527344-25.710937v-3.605469c0-14.9375 12.160156-27.097656 27.105469-27.097656 28.253906 0 56.191406-8.441406 79.878906-23.96875 3.273437 15.488281 5.015625 31.527344 5.015625 47.96875 0 47.160156-14.207031 91.863281-39.433594 129.367188zm5.113282-250.648438c-1.113282 1.304688-2.183594 2.480469-3.273438 3.570312l-12.0625 12.054688c-11.390625 11.382812-26.519531 17.65625-42.625 17.65625h-15.4375c-16.105469 0-31.234375-6.273438-42.625-17.65625-14.410156-14.40625-33.558594-22.34375-53.9375-22.34375h-49.664062c-9.949219 0-18.054688-8.097656-18.054688-18.054688 0-6.050781 3.007812-11.664062 8.039062-15.023437 23.921876-15.945313 38.464844-42.179687 39.722657-70.730469 80.253906 2.664063 150.316406 46.222656 189.917969 110.527344zm-350.824219-52.773438c14.695312 10.175782 27.832031 22.222657 38.929687 36.078126 6.589844 8.242187 10.214844 18.59375 10.214844 29.144531v14.207031c0 12.457031-4.847656 24.167969-13.65625 32.976562-11.832031 11.824219-18.34375 27.550782-18.34375 44.28125v10.742188c0 12.273438-4.976562 24.296875-13.65625 32.976562l-8.40625 8.410157c-3.335938 3.328125-7.960938 5.238281-12.679688 5.238281-8.515624 0-15.914062-6.0625-17.585937-14.414062-4.785156-23.960938-20.214844-44.347657-41.640625-55.800782 7.457031-57.023437 35.671875-107.585937 76.824219-143.839844zm-78.855469 174.054688c0-4.222656.128906-8.425781.351562-12.59375 14.144532 9.585938 24.234376 24.328125 27.632813 41.320312 3.175781 15.800782 17.167969 27.273438 33.273437 27.273438 8.925782 0 17.679688-3.625 23.988282-9.9375l8.410156-8.40625c11.832031-11.824219 18.34375-27.550781 18.34375-44.289062v-10.742188c0-12.457031 4.847656-24.167969 13.65625-32.976562 11.832031-11.824219 18.34375-27.550782 18.34375-44.28125v-14.207032c0-14.167968-4.871094-28.0625-13.71875-39.128906-11.128906-13.902344-24.144531-26.109375-38.617188-36.625 36.953126-28.160156 82.566407-45.460938 132.089844-47.207031-1.242187 23.175781-13.136718 44.433593-32.59375 57.402343-9.488281 6.335938-15.160156 16.925782-15.160156 28.34375 0 18.773438 15.273438 34.054688 34.054688 34.054688h49.664062c16.105469 0 31.234375 6.273438 42.625 17.65625 14.410156 14.40625 33.558594 22.34375 53.9375 22.34375h15.4375c20.378906 0 39.527344-7.9375 53.9375-22.34375l12.070312-12.0625c.074219-.074219.136719-.152344.210938-.226562 6.917969 13.3125 12.582031 27.367187 16.839844 42.03125-22.042969 15.832031-48.671875 24.601562-75.671875 24.601562-23.769531 0-43.105469 19.335938-43.105469 43.097656v3.605469c0 18.578125 11.839844 35.007813 29.472656 40.882813 11.078125 3.703124 18.527344 14.03125 18.527344 25.710937v22.558594c0 12.59375 5.488281 24.519531 15.054688 32.730469l16.097656 13.789062c-19.191406 24.632812-43.488282 45.496094-71.953125 61.074219-22.71875-22.417969-53.535157-35.449219-86.75-35.449219h-16.449219v-16h56c39.703125 0 72-32.296875 72-72v-8h-72c-22.609375 0-42.792969 10.496094-56 26.839844v-82.839844h24c30.871094 0 56-25.121094 56-56v-8h-40c-26.289062 0-48.351562 18.238281-54.335938 42.710938-10.265624-11.453126-25.113281-18.710938-41.664062-18.710938h-40v8c0 30.871094 25.128906 56 56 56h24v42.839844c-13.207031-16.34375-33.390625-26.839844-56-26.839844h-72v8c0 39.703125 32.296875 72 72 72h56v32h-16.449219c-33.214843 0-64.03125 13.03125-86.75 35.449219-74.617187-40.824219-120.800781-118.175781-120.800781-203.449219zm240.566406 136c3.890625-27.105469 27.265625-48 55.433594-48h55.433594c-3.890625 27.105469-27.265625 48-55.433594 48zm.242188-136c3.71875-18.230469 19.871094-32 39.191406-32h23.191406c-3.71875 18.230469-19.871094 32-39.191406 32zm-17.617188 24h-23.191406c-19.320312 0-35.480469-13.769531-39.191406-32h23.191406c19.320312 0 35.480469 13.769531 39.191406 32zm.242188 96h-55.433594c-28.167969 0-51.535156-20.894531-55.433594-48h55.433594c28.167969 0 51.535156 20.894531 55.433594 48zm-15.882813 64h48.890625c36.574219 0 69.816406 18.113281 89.648438 48h-228.179688c19.824219-29.886719 53.074219-48 89.640625-48zm0 0"/><path d="m192 448h16v16h-16zm0 0"/><path d="m240 448h16v16h-16zm0 0"/><path d="m288 448h16v16h-16zm0 0"/><path d="m480 480h16v16h-16zm0 0"/><path d="m0 480h16v16h-16zm0 0"/></svg>