<?xml version="1.0" encoding="iso-8859-1"?>
<!-- Generator: Adobe Illustrator 19.0.0, SVG Export Plug-In . SVG Version: 6.00 Build 0)  -->
<svg version="1.1" id="Capa_1" xmlns="http://www.w3.org/2000/svg" xmlns:xlink="http://www.w3.org/1999/xlink" x="0px" y="0px"
	 viewBox="0 0 496 496" style="enable-background:new 0 0 496 496;" xml:space="preserve">
<g>
	<g>
		<g>
			<path d="M496,302.248V193.752l-51.056-12.768c-3.336-9.792-7.496-19.48-12.36-28.84l-14.192,7.384
				c5.16,9.904,9.432,20.184,12.704,30.56l1.344,4.264L480,206.248v83.504l-47.56,11.888l-1.344,4.264
				c-3.28,10.368-7.552,20.656-12.704,30.56l-2.064,3.968l25.256,42.088l-59.048,59.048l-42.088-25.256l-3.968,2.064
				c-9.904,5.16-20.184,9.432-30.56,12.704l-4.264,1.344L289.752,480h-83.504l-11.888-47.56l-4.264-1.344
				c-10.368-3.28-20.656-7.552-30.56-12.704l-3.968-2.064l-42.088,25.256L50.016,378.12l-11.312,11.312l72.304,72.304l45.168-27.104
				c8.104,4,16.424,7.464,24.824,10.328L193.752,496h108.496l12.768-51.056c8.4-2.864,16.72-6.328,24.824-10.328l45.168,27.104
				l76.72-76.72l-27.104-45.168c4-8.104,7.464-16.424,10.328-24.824L496,302.248z"/>
			<path d="M63.416,343.848l14.192-7.384c-5.16-9.904-9.432-20.184-12.704-30.56l-1.344-4.264L16,289.752v-83.504l47.56-11.888
				l1.344-4.264c3.28-10.368,7.552-20.656,12.704-30.56l2.064-3.968L54.416,113.48l59.048-59.048l42.088,25.256l3.968-2.064
				c9.904-5.16,20.184-9.432,30.56-12.704l4.264-1.344L206.248,16h83.504l11.888,47.56l4.264,1.344
				c10.368,3.28,20.656,7.552,30.56,12.704l3.968,2.064l42.088-25.256l63.464,63.464l11.312-11.312l-72.304-72.304l-45.168,27.104
				c-8.104-4-16.424-7.464-24.824-10.328L302.248,0H193.752l-12.768,51.056c-8.4,2.864-16.72,6.328-24.824,10.328L110.992,34.28
				L34.272,111l27.104,45.168c-4,8.104-7.464,16.424-10.328,24.824L0,193.752v108.496l51.056,12.768
				C54.392,324.808,58.544,334.488,63.416,343.848z"/>
			<path d="M248,72c-97.048,0-176,78.952-176,176s78.952,176,176,176s176-78.952,176-176S345.048,72,248,72z M248,408
				c-88.224,0-160-71.776-160-160S159.776,88,248,88s160,71.776,160,160S336.224,408,248,408z"/>
			<rect x="240" y="32" width="16" height="16"/>
			<rect x="92.915" y="92.92" transform="matrix(0.7071 -0.7071 0.7071 0.7071 -41.804 100.9162)" width="16" height="16"/>
			<rect x="32" y="240" width="16" height="16"/>
			<rect x="92.887" y="387.052" transform="matrix(-0.7071 0.7071 -0.7071 -0.7071 451.5688 603.0585)" width="16" height="16"/>
			<rect x="240" y="448" width="16" height="16"/>
			<rect x="387.019" y="387.04" transform="matrix(-0.7071 0.7071 -0.7071 -0.7071 953.6754 395.0533)" width="16" height="16"/>
			<rect x="448" y="240" width="16" height="16"/>
			<rect x="387.047" y="92.948" transform="matrix(-0.7071 -0.7071 0.7071 -0.7071 603.0065 451.669)" width="16" height="16"/>
			<path d="M296,200h-96v96h96V200z M280,280h-64v-64h64V280z"/>
			<path d="M328,168h-40v-24h-16v24h-16v-24h-16v24h-16v-24h-16v24h-40v40h-24v16h24v16h-24v16h24v16h-24v16h24v40h40v24h16v-24h16
				v24h16v-24h16v24h16v-24h40v-40h24v-16h-24v-16h24v-16h-24v-16h24v-16h-24V168z M312,312H184V184h128V312z"/>
			<rect x="208" y="112" width="16" height="16"/>
			<rect x="240" y="112" width="16" height="16"/>
			<rect x="272" y="112" width="16" height="16"/>
			<rect x="112" y="272" width="16" height="16"/>
			<rect x="112" y="240" width="16" height="16"/>
			<rect x="112" y="208" width="16" height="16"/>
			<rect x="272" y="368" width="16" height="16"/>
			<rect x="240" y="368" width="16" height="16"/>
			<rect x="208" y="368" width="16" height="16"/>
			<rect x="368" y="208" width="16" height="16"/>
			<rect x="368" y="240" width="16" height="16"/>
			<rect x="368" y="272" width="16" height="16"/>
		</g>
	</g>
</g>
<g>
</g>
<g>
</g>
<g>
</g>
<g>
</g>
<g>
</g>
<g>
</g>
<g>
</g>
<g>
</g>
<g>
</g>
<g>
</g>
<g>
</g>
<g>
</g>
<g>
</g>
<g>
</g>
<g>
</g>
</svg>
