<svg height="496pt" viewBox="0 0 496 496" width="496pt" xmlns="http://www.w3.org/2000/svg"><path d="m454.617188 480c-7.617188 0-11.050782-2.65625-15.808594-6.328125-5.570313-4.3125-12.503906-9.671875-25.585938-9.671875-13.078125 0-20.007812 5.359375-25.574218 9.671875-4.746094 3.671875-8.167969 6.328125-15.777344 6.328125-7.589844 0-11.023438-2.65625-15.765625-6.328125-5.570313-4.3125-12.488281-9.671875-25.5625-9.671875-13.070313 0-20 5.359375-25.566407 9.671875-4.746093 3.671875-8.167968 6.328125-15.777343 6.328125-7.589844 0-11.023438-2.65625-15.765625-6.328125-5.570313-4.3125-12.488282-9.671875-25.5625-9.671875-13.070313 0-20 5.359375-25.566406 9.671875-4.746094 3.671875-8.167969 6.328125-15.769532 6.328125-7.597656 0-11.023437-2.65625-15.765625-6.328125-5.570312-4.3125-12.488281-9.671875-25.5625-9.671875-13.070312 0-20 5.359375-25.558593 9.671875-4.746094 3.671875-8.160157 6.328125-15.761719 6.328125-7.582031 0-11-2.65625-15.742188-6.320312-5.558593-4.3125-12.480469-9.679688-25.542969-9.679688-13.074218 0-20 5.359375-25.5625 9.671875-4.742187 3.671875-8.167968 6.328125-15.757812 6.328125-7.585938 0-11.007812-2.65625-15.746094-6.328125-5.558594-4.304687-12.480468-9.671875-25.535156-9.671875v16c7.585938 0 11.007812 2.65625 15.742188 6.328125 5.5625 4.304687 12.480468 9.671875 25.539062 9.671875 13.0625 0 19.992188-5.359375 25.550781-9.671875 4.742188-3.671875 8.175781-6.328125 15.769531-6.328125 7.582032 0 11.007813 2.65625 15.75 6.328125 5.558594 4.3125 12.480469 9.671875 25.535157 9.671875 13.066406 0 19.992187-5.359375 25.554687-9.671875 4.742188-3.671875 8.175782-6.328125 15.765625-6.328125 7.59375 0 11.023438 2.65625 15.769531 6.328125 5.566407 4.3125 12.496094 9.671875 25.558594 9.671875 13.066406 0 19.992188-5.359375 25.5625-9.671875 4.742188-3.671875 8.175782-6.328125 15.773438-6.328125 7.59375 0 11.023437 2.65625 15.769531 6.328125 5.566406 4.3125 12.496094 9.671875 25.558594 9.671875 13.066406 0 20-5.359375 25.570312-9.671875 4.742188-3.671875 8.175781-6.328125 15.773438-6.328125 7.59375 0 11.023437 2.65625 15.769531 6.328125 5.566406 4.3125 12.496094 9.671875 25.558594 9.671875 13.066406 0 20-5.359375 25.570312-9.671875 4.742188-3.671875 8.175782-6.328125 15.78125-6.328125 7.617188 0 11.050782 2.65625 15.808594 6.328125 5.570312 4.3125 12.503906 9.671875 25.585938 9.671875 13.078124 0 20.007812-5.359375 25.574218-9.671875 4.761719-3.671875 8.191406-6.328125 15.808594-6.328125v-16c-13.078125 0-20.015625 5.359375-25.585938 9.671875-4.757812 3.671875-8.191406 6.328125-15.796874 6.328125zm0 0"/><path d="m0 432h16.777344v16h-16.777344zm0 0"/><path d="m424 368h-8v-54.238281c0-49.472657-17.734375-97.410157-49.929688-134.96875l-.101562.085937c.65625-1.789062 1.167969-3.632812 1.496094-5.550781 26.152344-12.496094 56.40625-16.382813 84.871094-10.703125l42.136718 8.429688-20.144531-40.285157c-13.183594-26.386719-39.703125-42.769531-69.199219-42.769531-23.9375 0-46.191406 11.078125-60.800781 29.742188.671875-11.957032 2.441406-23.847657 5.351563-35.46875l.375-1.53125c6.183593-24.71875 17.074218-47.574219 32.34375-67.941407l9.601562-12.800781h-34.910156c-25.746094 0-49.664063 13.878906-62.433594 36.230469-9.585938 16.777343-14.65625 35.859375-14.65625 55.175781 0 18.882812 4.871094 37.425781 14.015625 53.914062l-7.128906-5.089843c-18.535157-13.230469-40.375-20.230469-63.132813-20.230469-16.777344 0-33.570312 3.96875-48.578125 11.472656-29.097656 14.542969-47.175781 43.792969-47.175781 76.328125v24.199219l12.800781-9.601562c20.367188-15.277344 43.230469-26.160157 67.933594-32.335938l1.546875-.382812c15.0625-3.769532 30.566406-5.679688 46.101562-5.679688h.753907c-.289063 1.121094-.503907 2.246094-.671875 3.40625l-14.007813 9.347656c-21.578125 14.382813-34.457031 38.445313-34.457031 64.375 0 29.496094 16.390625 56.007813 42.769531 69.199219l40.285157 20.144531-8.429688-42.136718c-1.746094-8.695313-2.625-17.625-2.625-26.519532 0-20.105468 4.617188-40.207031 13.289062-58.351562 3.992188-.671875 7.703126-2.097656 11.046876-4.105469 1.144531 10.746094 7.535156 19.832031 16.648437 24.71875 9.710937 24.648437 14.726563 50.554687 14.96875 77.042969-2.5625-.65625-5.191406-1.121094-7.953125-1.121094-17.648438 0-32 14.351562-32 32 0 5.855469 1.695312 11.273438 4.449219 16h-116.449219c-37 0-67.558594 28.046875-71.550781 64h-80.472657v16h464.023438v-8c0-39.695312-32.296875-72-72-72zm-24-54.238281v54.238281h-44.449219c2.753907-4.726562 4.449219-10.144531 4.449219-16 0-2.777344-.464844-5.425781-1.136719-8h17.136719v-16h-24v-4.921875c0-3.703125-.089844-7.398437-.265625-11.078125h24.265625v-16h-25.640625c-.632813-5.359375-1.390625-10.703125-2.398437-16h28.039062v-16h-31.710938c-1.449218-5.488281-3.050781-10.945312-4.914062-16.34375 16.050781-1.710938 28.625-15.167969 28.625-31.65625 0-3.921875-.808594-7.640625-2.105469-11.121094 22.050781 31.875 34.105469 69.832032 34.105469 108.882813zm-80-145.761719c0-8.824219 7.175781-16 16-16s16 7.175781 16 16-7.175781 16-16 16-16-7.175781-16-16zm34.0625-36.671875c11.417969-17.113281 30.496094-27.328125 51.066406-27.328125 23.398438 0 44.429688 13 54.886719 33.929688l5.511719 11.015624-10.054688-2.007812c-29.976562-5.976562-61.671875-2.449219-89.6875 9.613281-3.042968-7.886719-9.074218-14.253906-16.746094-17.710937zm-45.519531-87.160156c9.9375-17.375 28.527343-28.167969 48.546875-28.167969h3.636718c-11.964843 18.71875-20.75 39.128906-26.191406 60.871094l-.375 1.527344c-4.089844 16.328124-6.160156 33.144531-6.160156 49.984374v8.753907c-5.847656 1.519531-11.046875 4.582031-15.097656 8.824219l-3.335938-5.5625c-8.871094-14.796876-13.566406-31.734376-13.566406-48.992188 0-16.542969 4.335938-32.878906 12.542969-47.238281zm-102.128907 129.984375-1.550781.382812c-21.582031 5.402344-41.863281 14.113282-60.488281 25.953125 2.449219-23.449219 16.519531-43.992187 37.960938-54.703125 12.792968-6.402344 27.113281-9.777344 41.417968-9.777344 19.414063 0 38.03125 5.96875 53.839844 17.25l9.566406 6.832032c-7.710937.207031-14.679687 3.175781-20.105468 7.910156h-10.671876c-16.847656 0-33.65625 2.070312-49.96875 6.152344zm51.507813 141.863281c-20.921875-10.464844-33.921875-31.496094-33.921875-54.886719 0-20.5625 10.214844-39.65625 27.328125-51.066406l7.519531-5.015625c3.433594 7.640625 9.769532 13.65625 17.609375 16.714844-8.160156 18.894531-12.457031 39.484375-12.457031 60.054687 0 9.953125.984375 19.925782 2.9375 29.664063l2.007812 10.046875zm30.078125-108.015625c-8.824219 0-16-7.175781-16-16s7.175781-16 16-16 16 7.175781 16 16-7.175781 16-16 16zm48-8c8.824219 0 16 7.175781 16 16s-7.175781 16-16 16-16-7.175781-16-16 7.175781-16 16-16zm-24 152c0-8.824219 7.175781-16 16-16s16 7.175781 16 16-7.175781 16-16 16-16-7.175781-16-16zm-183.433594 80c3.890625-27.105469 27.265625-48 55.433594-48h240c28.167969 0 51.535156 20.894531 55.433594 48zm0 0"/><path d="m72 144c39.703125 0 72-32.304688 72-72s-32.296875-72-72-72-72 32.304688-72 72 32.296875 72 72 72zm0-128c30.871094 0 56 25.121094 56 56s-25.128906 56-56 56-56-25.121094-56-56 25.128906-56 56-56zm0 0"/></svg>