<?xml version="1.0" encoding="iso-8859-1"?>
<!-- Generator: Adobe Illustrator 19.0.0, SVG Export Plug-In . SVG Version: 6.00 Build 0)  -->
<svg version="1.1" id="Layer_1" xmlns="http://www.w3.org/2000/svg" xmlns:xlink="http://www.w3.org/1999/xlink" x="0px" y="0px"
	 viewBox="0 0 496 496" style="enable-background:new 0 0 496 496;" xml:space="preserve">
<g>
	<g>
		<g>
			<path d="M293.552,299.272L254,352l42,56v-24h44.992l36.072-63.768l-37.008-74.016l-63.592,21.2L293.552,299.272z M331.664,368
				H286l-12-16l11.864-15.824l66.504-4.792L331.664,368z M331.952,265.784l24.632,49.256l-35.08,2.528l-21.96-40.984
				L331.952,265.784z M296,303.856l8.024,14.968L296,319.4V303.856z"/>
			<path d="M244.28,238.16l66.288,11.048l13.424-80.52l-19.128,19.128L284,160h-64.44l-45.72,73.16l43.176,43.176L244.28,238.16z
				 M276,176l25,33.336l-3.576,21.456l-24.776-4.128l1.776-1.776L239.864,176H276z M194.152,230.84l30.448-48.72l19.92,28.176
				l-29.544,41.368L194.152,230.84z"/>
			<path d="M155.36,384H240v-64h-33.968l-16.304-57.064l-70.376,11.728l14.912,14.912l-15.336,30.672L155.36,384z M224,336v32
				h-53.272l17.36-32H224z M152.648,285.336l25.624-4.272l7.936,27.792l-1.24-0.672l-26.544,48.936l-21.352-37.368l16.664-33.328
				L152.648,285.336z"/>
			<path d="M456,416v-32h-39.752l7.512-248H456V80c0-13.232-10.768-24-24-24h-8V24h-16v32h-16V0H104v56H88V24H72v32h-8
				c-13.232,0-24,10.768-24,24v56h32.232l7.512,248H40v32H8v48h32v32h64v-16h288v16h64v-32h32v-48H456z M40,448H24v-16h16V448z
				 M120,16h256v40H120V16z M56,120V80c0-4.408,3.584-8,8-8h40h288h40c4.416,0,8,3.592,8,8v40H56z M88,480H56v-80h32V480z
				 M400.248,384H392v80H104v-80h-8.232l-7.512-248H407.76L400.248,384z M440,480h-32v-80h32V480z M472,448h-16v-16h16V448z"/>
		</g>
	</g>
</g>
<g>
</g>
<g>
</g>
<g>
</g>
<g>
</g>
<g>
</g>
<g>
</g>
<g>
</g>
<g>
</g>
<g>
</g>
<g>
</g>
<g>
</g>
<g>
</g>
<g>
</g>
<g>
</g>
<g>
</g>
</svg>
