<?xml version="1.0" encoding="iso-8859-1"?>
<!-- Generator: Adobe Illustrator 19.0.0, SVG Export Plug-In . SVG Version: 6.00 Build 0)  -->
<svg version="1.1" id="Capa_1" xmlns="http://www.w3.org/2000/svg" xmlns:xlink="http://www.w3.org/1999/xlink" x="0px" y="0px"
	 viewBox="0 0 496 496" style="enable-background:new 0 0 496 496;" xml:space="preserve">
<g>
	<g>
		<g>
			<polygon points="275.416,158.552 346.048,208 275.416,257.448 284.584,270.552 373.952,208 284.584,145.448 			"/>
			<polygon points="163.416,145.448 74.048,208 163.416,270.552 172.584,257.448 101.952,208 172.584,158.552 			"/>
			
				<rect x="215.999" y="106.822" transform="matrix(-0.9486 -0.3164 0.3164 -0.9486 370.6716 476.2105)" width="16" height="202.379"/>
			<path d="M456,112h-8V0H0v352h32v56c0,22.056,17.944,40,40,40h80v32h-32v16h32h224h32v-16h-32v-32h80c22.056,0,40-17.944,40-40
				V152C496,129.944,478.056,112,456,112z M16,16h416v48H16V16z M16,336V80h416v256H16z M360,480H168v-32h192V480z M480,408
				c0,13.232-10.768,24-24,24h-80H152H72c-13.232,0-24-10.768-24-24v-8h432V408z M480,384H48v-32h400V128h8
				c13.232,0,24,10.768,24,24V384z"/>
			<rect x="32" y="32" width="16" height="16"/>
			<rect x="64" y="32" width="16" height="16"/>
			<rect x="96" y="32" width="16" height="16"/>
		</g>
	</g>
</g>
<g>
</g>
<g>
</g>
<g>
</g>
<g>
</g>
<g>
</g>
<g>
</g>
<g>
</g>
<g>
</g>
<g>
</g>
<g>
</g>
<g>
</g>
<g>
</g>
<g>
</g>
<g>
</g>
<g>
</g>
</svg>
