<?xml version="1.0" encoding="iso-8859-1"?>
<!-- Generator: Adobe Illustrator 19.0.0, SVG Export Plug-In . SVG Version: 6.00 Build 0)  -->
<svg version="1.1" id="Capa_1" xmlns="http://www.w3.org/2000/svg" xmlns:xlink="http://www.w3.org/1999/xlink" x="0px" y="0px"
	 viewBox="0 0 496 496" style="enable-background:new 0 0 496 496;" xml:space="preserve">
<g>
	<g>
		<path d="M480,416V136c0-22.056-17.944-40-40-40H288V40c0-22.056-17.944-40-40-40c-22.056,0-40,17.944-40,40v56H56
			c-22.056,0-40,17.944-40,40v280H0v40c0,22.056,17.944,40,40,40h416c22.056,0,40-17.944,40-40v-40H480z M224,40
			c0-13.232,10.768-24,24-24s24,10.768,24,24v8h-48V40z M224,64h48v16h-48V64z M224,96h16v16h16V96h16v160h-16V128h-16v128h-16V96z
			 M268.456,272l-17.136,45.704c-1.032,2.752-5.6,2.76-6.632-0.008L227.544,272H268.456z M229.696,323.312
			C232.536,330.896,239.896,336,248,336s15.464-5.104,18.304-12.68L288,265.456V176h112v208H96V176h112v89.456L229.696,323.312z
			 M32,136c0-13.232,10.768-24,24-24h152v16H64c-8.824,0-16,7.176-16,16v256h16V144h144v16H80v240h336V160H288v-16h144v256h16V144
			c0-8.824-7.176-16-16-16H288v-16h152c13.232,0,24,10.768,24,24v280H32V136z M320,432v8c0,4.416-3.592,8-8,8H184
			c-4.408,0-8-3.584-8-8v-8H320z M480,456c0,13.232-10.768,24-24,24H40c-13.232,0-24-10.768-24-24v-24h144v8
			c0,13.232,10.768,24,24,24h128c13.232,0,24-10.768,24-24v-8h144V456z"/>
	</g>
</g>
<g>
	<g>
		<path d="M112,192v80h80v-80H112z M176,256h-48v-48h48V256z"/>
	</g>
</g>
<g>
	<g>
		<rect x="304" y="192" width="80" height="16"/>
	</g>
</g>
<g>
	<g>
		<rect x="304" y="224" width="80" height="16"/>
	</g>
</g>
<g>
	<g>
		<rect x="304" y="256" width="80" height="16"/>
	</g>
</g>
<g>
	<g>
		<rect x="112" y="288" width="80" height="16"/>
	</g>
</g>
<g>
	<g>
		<rect x="304" y="288" width="80" height="16"/>
	</g>
</g>
<g>
	<g>
		<rect x="288" y="320" width="96" height="16"/>
	</g>
</g>
<g>
	<g>
		<rect x="112" y="320" width="96" height="16"/>
	</g>
</g>
<g>
	<g>
		<rect x="368" y="352" width="16" height="16"/>
	</g>
</g>
<g>
	<g>
		<rect x="112" y="352" width="240" height="16"/>
	</g>
</g>
<g>
	<g>
		<rect x="32" y="448" width="16" height="16"/>
	</g>
</g>
<g>
	<g>
		<rect x="64" y="448" width="16" height="16"/>
	</g>
</g>
<g>
	<g>
		<rect x="96" y="448" width="16" height="16"/>
	</g>
</g>
<g>
</g>
<g>
</g>
<g>
</g>
<g>
</g>
<g>
</g>
<g>
</g>
<g>
</g>
<g>
</g>
<g>
</g>
<g>
</g>
<g>
</g>
<g>
</g>
<g>
</g>
<g>
</g>
<g>
</g>
</svg>
